#define settings_icon_width 22
#define settings_icon_height 22
static unsigned char settings_icon_bits[] = {
   0x00, 0x00, 0x00, 0x00, 0x00, 0x00, 0x00, 0x00, 0x00, 0x00, 0x3f, 0x00,
   0x00, 0x3f, 0x00, 0x30, 0x3f, 0x06, 0xf8, 0xff, 0x07, 0xf8, 0xff, 0x07,
   0xf8, 0xc0, 0x07, 0xf0, 0xc0, 0x03, 0xf0, 0xc0, 0x03, 0xf0, 0xc0, 0x03,
   0xf0, 0xc0, 0x03, 0xf8, 0xc0, 0x07, 0xf8, 0xff, 0x07, 0xf8, 0xff, 0x07,
   0xf8, 0xff, 0x07, 0x00, 0x3f, 0x00, 0x00, 0x3f, 0x00, 0x00, 0x00, 0x00,
   0x00, 0x00, 0x00, 0x00, 0x00, 0x00 };
