#define settings_icon_width 24
#define settings_icon_height 24
static unsigned char settings_icon_bits[] = {
   0x00, 0x00, 0x00, 0x00, 0x00, 0x00, 0x00, 0x00, 0x00, 0x00, 0x7e, 0x00,
   0x00, 0x7e, 0x00, 0x30, 0x7e, 0x1c, 0xf8, 0xff, 0x1f, 0xf8, 0xff, 0x1f,
   0xf8, 0xff, 0x1f, 0xf8, 0x81, 0x1f, 0xf0, 0x81, 0x0f, 0xf0, 0x81, 0x0f,
   0xf0, 0x81, 0x0f, 0xf0, 0x81, 0x0f, 0xf8, 0x81, 0x1f, 0xf8, 0xff, 0x1f,
   0xf8, 0xff, 0x1f, 0xf8, 0xff, 0x1f, 0x70, 0xfe, 0x1e, 0x00, 0x7e, 0x00,
   0x00, 0x7e, 0x00, 0x00, 0x00, 0x00, 0x00, 0x00, 0x00, 0x00, 0x00, 0x00 };
